<svg width="375" height="480" viewBox="0 0 375 480" fill="none" xmlns="http://www.w3.org/2000/svg">
<path d="M559.548 310.122C551.08 317.769 546.718 329.032 545.357 342.493C542.551 370.227 540.546 396.893 527.048 421.909C502.981 466.55 444.944 486.893 396.712 477.923C376.228 474.112 356.546 464.001 343.437 447.834C325.906 426.205 321.86 395.303 300.15 376.83C280.444 360.068 253.727 363.236 229.745 361.537C203.879 359.704 176.191 352.069 154.93 336.849C133.839 321.738 118.64 296.358 121.544 270.59C123.318 254.896 131.482 239.919 129.975 224.201C126.622 189.39 86.1532 174.655 56.1932 174.133C35.2237 173.769 14.5093 180.724 -6.48458 178.212C-27.114 175.748 -45.8359 160.637 -54.2189 141.787C-70.3044 105.569 -42.9079 73.4893 -15.0255 53.2803C17.9961 29.3573 57.3596 13.6756 97.2941 6.15038C173.603 -8.20829 251.784 4.46327 325.76 24.7086C397.04 44.2136 465.914 72.7974 521.691 122.537C542.806 141.374 561.018 164.824 577.601 187.582C589.325 203.664 602.41 219.249 611.364 237.151C620.027 254.484 624.923 280.349 605.775 292.559C591.634 301.602 572.474 298.458 559.548 310.122Z" fill="url(#paint0_linear)" fill-opacity="0.3"/>
<defs>
<linearGradient id="paint0_linear" x1="280" y1="0" x2="280" y2="480" gradientUnits="userSpaceOnUse">
<stop offset="0.296875" stop-color="#29ABE2" stop-opacity="0"/>
<stop offset="1" stop-color="#29ABE2"/>
</linearGradient>
</defs>
</svg>
