<svg width="1285" height="1048" viewBox="0 0 1285 1048" fill="none" xmlns="http://www.w3.org/2000/svg">
<path d="M1607.49 605.964C1585.49 625.861 1574.15 655.17 1570.62 690.195C1563.32 762.362 1558.11 831.749 1523.03 896.841C1460.49 1013 1309.66 1065.94 1184.31 1042.6C1131.08 1032.68 1079.93 1006.37 1045.86 964.302C1000.3 908.021 989.787 827.612 933.365 779.543C882.153 735.927 812.722 744.17 750.396 739.748C683.176 734.979 611.219 715.114 555.966 675.509C501.154 636.188 461.655 570.149 469.201 503.098C473.811 462.262 495.028 423.289 491.113 382.389C482.399 291.809 377.227 253.468 299.367 252.11C244.87 251.162 191.037 269.259 136.478 262.722C82.8661 256.31 34.2111 216.99 12.4253 167.942C-29.3782 73.6985 41.8204 -9.77481 114.282 -62.3602C200.099 -124.61 302.398 -165.415 406.18 -184.996C604.494 -222.359 807.671 -189.386 999.923 -136.706C1185.17 -85.9525 1364.16 -11.575 1509.11 117.851C1563.99 166.868 1611.31 227.886 1654.41 287.104C1684.88 328.951 1718.89 369.503 1742.16 416.088C1764.67 461.188 1777.39 528.491 1727.63 560.263C1690.88 583.792 1641.09 575.612 1607.49 605.964Z" fill="url(#paint0_linear)" fill-opacity="0.3"/>
<defs>
<linearGradient id="paint0_linear" x1="881" y1="-201" x2="881" y2="1048" gradientUnits="userSpaceOnUse">
<stop offset="0.296875" stop-color="#29ABE2" stop-opacity="0"/>
<stop offset="1" stop-color="#29ABE2"/>
</linearGradient>
</defs>
</svg>
