<svg width="1920" height="1912" viewBox="0 0 1920 1912" fill="none" xmlns="http://www.w3.org/2000/svg">
<path d="M2190.64 53.6747C2029.96 -35.7366 1841.89 10.6379 1789.82 23.4611C1754.97 32.0685 1694.91 47.3509 1626.86 88.1042C1475.76 178.482 1491.74 270.528 1352.39 371.621C1321.49 394.017 1220.6 467.268 1080.38 483.341C994.338 493.178 840.84 496.545 727.4 551C698.425 564.877 689.661 570.433 682.9 575C561.558 655.98 531.807 709.458 453.4 777C427.85 798.958 347.189 908.438 179.4 895C-72.5984 874.818 -196.6 934.684 -290.6 1015C-370.06 1082.89 -402.377 1140.83 -434.6 1237C-477.272 1364 -446.878 1630.13 -282.6 1758.55C5.40155 2027 1473.4 2447 2216.45 1758.55C2381.43 1553.82 2464.23 1292.79 2488.37 1033.6C2499.79 910.723 2535 631.423 2405.05 334.644C2358.87 229.335 2309 119.548 2190.64 53.6747Z" fill="url(#paint0_linear)" fill-opacity="0.2"/>
<defs>
<linearGradient id="paint0_linear" x1="1126.9" y1="0" x2="1126.9" y2="2225" gradientUnits="userSpaceOnUse">
<stop stop-color="#2AABE2"/>
<stop offset="0.826517" stop-color="white" stop-opacity="0"/>
</linearGradient>
</defs>
</svg>
