<svg width="1429" height="1247" viewBox="0 0 1429 1247" fill="none" xmlns="http://www.w3.org/2000/svg">
<path d="M-271.276 529.9C-252.276 505.4 -245.576 472.4 -247.676 434.5C-251.976 356.5 -257.876 281.8 -233.076 207.1C-188.776 73.8998 -45.376 -5.50018 84.624 0.299818C139.824 2.79982 195.624 22.9998 236.724 62.5998C315.724 138.7 334.324 258.5 463.424 265.4C501.624 267.4 537.624 257.6 575.224 255.3C671.024 249.5 784.724 277.4 844.824 357.9C879.824 404.8 893.024 466.1 932.424 509.3C968.324 548.8 1022.22 568.1 1075.42 572.7C1140.82 578.3 1211.12 548.9 1273.62 569.7C1354.52 596.7 1407.52 672.2 1423.72 753.6C1443.82 854.8 1402.72 936.5 1340.62 1014.2C1303.42 1060.7 1231.02 1129.8 1066.32 1189.3C872.524 1259.3 662.624 1255.1 460.424 1228.3C265.624 1202.5 73.324 1150.5 -93.576 1034.7C-156.776 990.8 -214.276 933.1 -267.176 876.5C-304.576 836.6 -345.376 798.5 -376.376 752.5C-406.276 708.1 -429.976 638.3 -384.976 596.9C-351.676 566.2 -300.276 567.4 -271.276 529.9Z" fill="url(#paint0_linear)" fill-opacity="0.3"/>
<defs>
<linearGradient id="paint0_linear" x1="593.107" y1="1278.48" x2="391.845" y2="-52.0597" gradientUnits="userSpaceOnUse">
<stop offset="0.2969" stop-color="#29ABE2" stop-opacity="0"/>
<stop offset="1" stop-color="#29ABE2"/>
</linearGradient>
</defs>
</svg>
