<?xml version="1.0" standalone="no"?>
<!DOCTYPE svg PUBLIC "-//W3C//DTD SVG 20010904//EN"
 "http://www.w3.org/TR/2001/REC-SVG-20010904/DTD/svg10.dtd">
<svg version="1.0" xmlns="http://www.w3.org/2000/svg"
 width="512.000000pt" height="512.000000pt" viewBox="0 0 512.000000 512.000000"
 preserveAspectRatio="xMidYMid meet">
<metadata>
Created by potrace 1.14, written by Peter Selinger 2001-2017
</metadata>
<g transform="translate(0.000000,512.000000) scale(0.100000,-0.100000)"
fill="#000000" stroke="none">
<path d="M0 2560 l0 -2560 2560 0 2560 0 0 2560 0 2560 -2560 0 -2560 0 0
-2560z m3000 1760 c314 -38 645 -178 891 -376 74 -60 90 -94 67 -137 -29 -54
-244 -326 -266 -336 -40 -19 -56 -13 -158 64 -224 170 -473 255 -750 255 -201
0 -357 -36 -539 -125 -129 -63 -207 -118 -309 -215 -345 -330 -466 -782 -336
-1256 92 -337 380 -651 722 -788 447 -180 951 -84 1306 247 110 104 116 104
259 -5 209 -158 231 -177 238 -208 9 -41 -12 -74 -97 -156 -291 -279 -635
-445 -1022 -494 -177 -22 -418 -12 -601 26 -201 42 -477 164 -655 291 -112 80
-313 277 -392 383 -313 425 -425 935 -316 1440 55 259 175 514 340 725 56 71
201 217 283 285 237 194 544 327 865 375 106 16 358 18 470 5z"/>
</g>
</svg>
