<svg width="27" height="27" viewBox="0 0 27 27" fill="none" xmlns="http://www.w3.org/2000/svg">
<g clip-path="url(#clip0)">
<path fill-rule="evenodd" clip-rule="evenodd" d="M23.7013 0C25.5219 0 27 1.47814 27 3.29875V23.7013C27 25.5219 25.5219 27 23.7013 27H3.29875C1.47814 27 0 25.5219 0 23.7013V3.29875C0 1.47814 1.47809 0 3.29875 0H23.7013V0ZM22.5956 9.26174C22.3773 8.44494 21.7341 7.80168 20.9172 7.58341C19.4366 7.18664 13.5 7.18664 13.5 7.18664C13.5 7.18664 7.56343 7.18664 6.08275 7.58341C5.26611 7.80168 4.62275 8.44494 4.40443 9.26174C4.00781 10.7423 4.00781 13.8313 4.00781 13.8313C4.00781 13.8313 4.00781 16.9202 4.40443 18.4006C4.62275 19.2174 5.26611 19.8608 6.08275 20.0791C7.56343 20.4757 13.5 20.4757 13.5 20.4757C13.5 20.4757 19.4366 20.4757 20.9172 20.0791C21.7341 19.8608 22.3773 19.2174 22.5956 18.4006C22.9922 16.9202 22.9922 13.8313 22.9922 13.8313C22.9922 13.8313 22.9922 10.7423 22.5956 9.26174ZM11.6015 16.679V10.9836L16.5337 13.8313L11.6015 16.679Z" fill="#BCBCBC"/>
</g>
<defs>
<clipPath id="clip0">
<rect width="27" height="27" rx="8" fill="white"/>
</clipPath>
</defs>
</svg>
