<svg width="156" height="30" viewBox="0 0 156 30" fill="none" xmlns="http://www.w3.org/2000/svg">
<path d="M23.9991 0H21.4819C21.2004 0 20.9723 0.225334 20.9723 0.503297V28.9396C20.9723 29.2175 21.2004 29.4429 21.4819 29.4429H23.9991C24.2805 29.4429 24.5087 29.2175 24.5087 28.9396V0.503297C24.5087 0.225334 24.2805 0 23.9991 0Z" fill="#373737"/>
<path d="M86.1942 8.27531C83.4247 8.27531 80.5444 9.58892 79.0603 11.6461L79.0272 9.69461C79.0242 9.5631 78.9692 9.43798 78.8739 9.34603C78.7787 9.25408 78.6508 9.20261 78.5176 9.20264H76.4742C76.3391 9.20264 76.2095 9.25566 76.1139 9.35005C76.0184 9.44444 75.9647 9.57245 75.9647 9.70594V28.9382C75.9647 29.0717 76.0184 29.1997 76.1139 29.2941C76.2095 29.3884 76.3391 29.4415 76.4742 29.4415H78.8947C79.0298 29.4415 79.1594 29.3884 79.255 29.2941C79.3506 29.1997 79.4042 29.0717 79.4042 28.9382V18.3752C79.4042 14.6294 82.4616 11.5178 86.2515 11.548C90.0414 11.5782 92.9854 14.632 92.9854 18.3803V28.9382C92.9854 29.0717 93.0391 29.1997 93.1347 29.2941C93.2302 29.3884 93.3599 29.4415 93.495 29.4415H95.9154C96.0506 29.4415 96.1802 29.3884 96.2757 29.2941C96.3713 29.1997 96.425 29.0717 96.425 28.9382V18.3803C96.422 15.7012 95.3431 13.1327 93.4251 11.2383C91.5071 9.3439 88.9066 8.27831 86.1942 8.27531Z" fill="#373737"/>
<path d="M124.284 8.27531C121.515 8.27531 118.634 9.58892 117.157 11.6461L117.123 9.69461C117.12 9.5631 117.065 9.43798 116.97 9.34603C116.875 9.25408 116.747 9.20261 116.614 9.20264H114.564C114.429 9.20264 114.299 9.25566 114.204 9.35005C114.108 9.44444 114.055 9.57245 114.055 9.70594V28.9382C114.055 29.0717 114.108 29.1997 114.204 29.2941C114.299 29.3884 114.429 29.4415 114.564 29.4415H116.985C117.12 29.4415 117.249 29.3884 117.345 29.2941C117.441 29.1997 117.494 29.0717 117.494 28.9382V18.3752C117.494 14.6294 120.552 11.5178 124.341 11.548C128.131 11.5782 131.075 14.632 131.075 18.3803V28.9382C131.075 29.0717 131.129 29.1997 131.225 29.2941C131.32 29.3884 131.45 29.4415 131.585 29.4415H134.005C134.141 29.4415 134.27 29.3884 134.366 29.2941C134.461 29.1997 134.515 29.0717 134.515 28.9382V18.3803C134.512 15.7012 133.433 13.1327 131.515 11.2383C129.597 9.3439 126.997 8.27831 124.284 8.27531Z" fill="#373737"/>
<path d="M16.1453 24.7032C15.0468 25.7153 13.6706 26.3852 12.1888 26.6293C10.707 26.8733 9.18521 26.6807 7.81361 26.0754C6.44202 25.4701 5.28142 24.479 4.47682 23.226C3.67223 21.9729 3.25933 20.5135 3.2897 19.03C3.32006 17.5465 3.79236 16.1048 4.64757 14.8849C5.50278 13.665 6.70299 12.7211 8.09824 12.171C9.49348 11.621 11.0219 11.4893 12.4925 11.7923C13.9631 12.0953 15.3107 12.8196 16.3669 13.8747C16.4163 13.9229 16.475 13.9605 16.5396 13.9854C16.6042 14.0103 16.6732 14.022 16.7425 14.0196C16.8118 14.0173 16.8799 14.001 16.9426 13.9717C17.0052 13.9425 17.0612 13.9009 17.1071 13.8496L18.623 12.1497C18.7092 12.0534 18.7549 11.9282 18.7506 11.7998C18.7463 11.6714 18.6925 11.5494 18.6001 11.4589C17.0688 9.97753 15.1307 8.97296 13.0264 8.56991C10.9222 8.16685 8.7444 8.38306 6.76344 9.19169C4.78249 10.0003 3.08559 11.3658 1.8834 13.1185C0.681203 14.8713 0.0266514 16.9342 0.000993828 19.0512C-0.0754409 24.6466 4.26606 29.4191 9.90694 29.95C11.4892 30.101 13.0856 29.9089 14.5849 29.3874C16.0842 28.8658 17.4502 28.0272 18.5874 26.9303C18.6371 26.8817 18.6762 26.8236 18.7023 26.7595C18.7283 26.6953 18.7407 26.6266 18.7386 26.5576C18.7366 26.4885 18.7202 26.4206 18.6905 26.3581C18.6607 26.2956 18.6182 26.2398 18.5657 26.1942L16.8345 24.6881C16.7386 24.6049 16.6145 24.5603 16.4869 24.563C16.3593 24.5658 16.2374 24.6158 16.1453 24.7032Z" fill="#373737"/>
<path d="M153.291 24.2615C152.263 25.3434 150.935 26.1021 149.473 26.443C148.011 26.7838 146.48 26.6916 145.07 26.1778C143.661 25.6641 142.436 24.7516 141.549 23.5544C140.662 22.3571 140.152 20.9282 140.082 19.4461C140.012 17.9641 140.386 16.4945 141.157 15.2211C141.928 13.9477 143.061 12.9269 144.416 12.2862C145.771 11.6455 147.287 11.4133 148.775 11.6186C150.262 11.8239 151.656 12.4576 152.781 13.4406C152.833 13.4853 152.895 13.519 152.961 13.5397C153.027 13.5603 153.096 13.5674 153.165 13.5606C153.234 13.5537 153.301 13.5331 153.361 13.4999C153.422 13.4668 153.475 13.4217 153.517 13.3676L154.919 11.5709C154.998 11.4691 155.035 11.3413 155.022 11.2136C155.009 11.0859 154.947 10.968 154.849 10.8839C153.221 9.50377 151.219 8.62655 149.091 8.36124C146.963 8.09594 144.803 8.45426 142.879 9.39165C140.956 10.3291 139.354 11.8042 138.272 13.6336C137.191 15.4631 136.677 17.5662 136.796 19.6815C137.097 25.2693 141.75 29.7474 147.414 29.906C149.003 29.9518 150.584 29.6544 152.045 29.0346C153.506 28.4148 154.812 27.4875 155.873 26.3175C155.919 26.2657 155.954 26.2051 155.975 26.1394C155.997 26.0737 156.004 26.0044 155.998 25.9357C155.991 25.867 155.97 25.8005 155.936 25.7402C155.902 25.6799 155.856 25.6271 155.8 25.5852L153.979 24.2011C153.877 24.124 153.75 24.0874 153.623 24.0986C153.495 24.1098 153.377 24.1679 153.291 24.2615Z" fill="#373737"/>
<path d="M109.694 9.20409H107.177C106.895 9.20409 106.667 9.42942 106.667 9.70739V28.9396C106.667 29.2176 106.895 29.4429 107.177 29.4429H109.694C109.975 29.4429 110.203 29.2176 110.203 28.9396V9.70739C110.203 9.42942 109.975 9.20409 109.694 9.20409Z" fill="#373737"/>
<path d="M109.694 2.01192H107.177C106.895 2.01192 106.667 2.23726 106.667 2.51522V5.99929C106.667 6.27726 106.895 6.50259 107.177 6.50259H109.694C109.975 6.50259 110.203 6.27726 110.203 5.99929V2.51522C110.203 2.23726 109.975 2.01192 109.694 2.01192Z" fill="#373737"/>
<path d="M72.1363 19.0852C72.1363 18.9078 72.1363 18.7316 72.1223 18.5567C72.1229 18.5475 72.1229 18.5383 72.1223 18.529C72.1133 18.3516 72.0993 18.1755 72.0815 17.9993C72.0821 17.9943 72.0821 17.9892 72.0815 17.9842C71.8116 15.4182 70.6225 13.0318 68.7283 11.2553C66.8342 9.47884 64.3598 8.42925 61.7513 8.29576C61.5653 8.28695 61.3794 8.28192 61.1921 8.28192C59.4163 8.282 57.6672 8.70843 56.0953 9.52448C54.5235 10.3405 53.176 11.5217 52.169 12.9664L44.1331 23.2688L44.0784 23.3456C43.2857 24.4964 42.1855 25.4075 40.9 25.9778C39.6145 26.548 38.1941 26.7549 36.7967 26.5755C36.6948 26.5629 36.5941 26.5478 36.4935 26.5315L36.4247 26.5201C36.3317 26.5038 36.2387 26.4862 36.1457 26.466L36.0502 26.4446C35.9674 26.4258 35.8845 26.4069 35.803 26.3855L35.654 26.344L35.4654 26.2899C33.6786 25.7337 32.1608 24.5488 31.2003 22.9601C30.2398 21.3715 29.9034 19.4897 30.2551 17.6722V17.6508C30.273 17.5577 30.2946 17.4646 30.3163 17.3727C30.3239 17.3425 30.3303 17.3111 30.3379 17.2809C30.3558 17.2104 30.3749 17.1412 30.3953 17.0707C30.4156 17.0003 30.4246 16.9663 30.4411 16.9135C30.4577 16.8606 30.4717 16.8166 30.487 16.7688C30.5112 16.6958 30.5367 16.6216 30.5621 16.5498C30.5736 16.5222 30.5838 16.4932 30.594 16.4655C30.6297 16.3737 30.6653 16.2818 30.7048 16.19L30.7163 16.1635C31.1177 15.2338 31.7023 14.3921 32.436 13.6875C33.1697 12.9828 34.038 12.4293 34.9903 12.0592L35.068 12.0315C35.1495 12.0013 35.2323 11.9711 35.3228 11.9421C35.4132 11.9132 35.4629 11.8981 35.5342 11.8767L35.654 11.8402C35.7457 11.8138 35.8387 11.7899 35.9317 11.7673L35.9941 11.7522C36.0973 11.7282 36.203 11.7056 36.3088 11.6855L36.3406 11.6792C36.4502 11.659 36.561 11.6402 36.6718 11.6251H36.696C36.8069 11.61 36.9177 11.5974 37.0298 11.5861C37.2018 11.571 37.3763 11.5584 37.5521 11.5533C38.8362 11.5186 40.1084 11.8047 41.2506 12.3852C42.3928 12.9657 43.3681 13.8217 44.086 14.8739C44.1117 14.9119 44.1264 14.9561 44.1286 15.0018C44.1307 15.0475 44.1202 15.0929 44.0982 15.1331C44.0762 15.1734 44.0435 15.2069 44.0037 15.2302C43.9638 15.2534 43.9183 15.2655 43.872 15.2652H38.2668C38.1316 15.2652 38.002 15.3182 37.9064 15.4126C37.8109 15.507 37.7572 15.635 37.7572 15.7685V18.2547C37.7572 18.3882 37.8109 18.5162 37.9064 18.6106C38.002 18.705 38.1316 18.758 38.2668 18.758H45.3039C45.3819 18.7581 45.4589 18.7404 45.5289 18.7063C45.5989 18.6723 45.6601 18.6228 45.7077 18.5618L47.9179 15.7282C47.971 15.6613 48.0058 15.5821 48.0189 15.4982C48.0321 15.4143 48.0232 15.3284 47.9931 15.2488C47.0685 12.8391 45.3019 10.8353 43.0124 9.59942C40.7229 8.36354 38.0615 7.97702 35.5087 8.50966L35.4259 8.52728C35.2986 8.5537 35.1826 8.58264 35.0616 8.61284C34.9852 8.63171 34.91 8.6531 34.8336 8.67323L34.6692 8.72105C33.117 9.17502 31.6854 9.9619 30.4767 11.0255C29.268 12.0891 28.3119 13.4031 27.6767 14.8739C27.6665 14.894 27.6576 14.9154 27.6487 14.9368C27.6194 15.0035 27.5927 15.0714 27.5646 15.1393C27.5222 15.245 27.4797 15.352 27.4372 15.4602L27.3952 15.5797C27.3481 15.7144 27.3035 15.849 27.2614 15.9849L27.25 16.0226C26.9703 16.949 26.8186 17.9085 26.799 18.8751C26.799 18.9455 26.799 19.0147 26.799 19.0852V19.1041C26.799 19.284 26.799 19.4639 26.813 19.6413C26.8124 19.6468 26.8124 19.6523 26.813 19.6577C26.8219 19.8389 26.8359 20.0175 26.8538 20.1962C27.0357 21.9476 27.6481 23.6286 28.6376 25.093C29.6272 26.5574 30.9639 27.7609 32.5316 28.5988C32.6781 28.6768 32.8272 28.7523 32.9775 28.8252L33.0526 28.8592C33.18 28.9184 33.3074 28.9762 33.4348 29.0303L33.5775 29.0895C33.6845 29.1323 33.7915 29.175 33.8998 29.2153L34.1049 29.2883C34.1941 29.3197 34.2832 29.3499 34.3737 29.3776C34.4641 29.4053 34.5495 29.433 34.6374 29.4594L34.854 29.5198C34.9597 29.5487 35.0667 29.5752 35.1737 29.6016L35.3419 29.6393C35.4692 29.667 35.589 29.6922 35.7138 29.7161L35.8412 29.7375C35.9814 29.7614 36.1228 29.784 36.2642 29.8029L36.3419 29.813C36.4973 29.8331 36.6527 29.8495 36.8107 29.8633H36.8234C37.1304 29.8897 37.44 29.9061 37.7534 29.9061C39.5304 29.9077 41.2812 29.4823 42.8547 28.6667C44.4282 27.851 45.7773 26.6695 46.7854 25.2242L51.6263 19.0084L51.7537 18.8524L54.8111 14.9217L54.8671 14.8462C55.5631 13.8375 56.4963 13.0105 57.5868 12.4361C58.6773 11.8617 59.8926 11.5571 61.1284 11.5483H61.1819C61.3093 11.5483 61.4469 11.5483 61.5794 11.5584C61.6405 11.5584 61.7068 11.5672 61.7628 11.5722C61.8189 11.5773 61.9004 11.581 61.9692 11.5886C62.038 11.5961 62.1322 11.6075 62.2125 11.6188L62.3526 11.6364C62.4482 11.6515 62.5424 11.6691 62.6367 11.6867L62.7272 11.7031C62.8329 11.7245 62.9386 11.7496 63.0431 11.7761L63.094 11.7874C63.2087 11.8163 63.3221 11.849 63.4355 11.883H63.4533C64.5126 12.211 65.4871 12.7623 66.3095 13.4987C67.1319 14.2352 67.7825 15.1393 68.2164 16.1485L68.2241 16.1635C68.2687 16.2692 68.3107 16.3762 68.3515 16.4831L68.3668 16.5247C68.4024 16.6253 68.4381 16.726 68.47 16.8279C68.4776 16.8505 68.484 16.8745 68.4916 16.8971C68.5196 16.9915 68.5477 17.0858 68.5732 17.1802C68.5821 17.2142 68.5897 17.2469 68.5973 17.2809C68.619 17.3677 68.6407 17.4545 68.6585 17.5413C68.6674 17.5854 68.6763 17.6294 68.684 17.6734C68.6993 17.7527 68.7145 17.8307 68.7273 17.9113C68.7362 17.9641 68.7426 18.0195 68.7502 18.0736C68.7579 18.1277 68.7693 18.2157 68.777 18.2875C68.7846 18.3592 68.7884 18.4133 68.7935 18.48C68.7986 18.5467 68.805 18.6058 68.8088 18.6725C68.8126 18.7392 68.8088 18.8159 68.8152 18.8876C68.8216 18.9594 68.8152 19.0047 68.8152 19.0651C68.8152 19.1255 68.8152 19.2173 68.8152 19.2928C68.8152 19.3494 68.8152 19.4073 68.8152 19.4639L68.8075 19.5608C68.8075 19.6539 68.7961 19.747 68.7859 19.8389C68.7859 19.8754 68.777 19.9131 68.7731 19.9496C68.763 20.0352 68.7528 20.1207 68.74 20.2012C68.7337 20.2465 68.7247 20.2918 68.7171 20.3359C68.7044 20.4101 68.6916 20.4844 68.6763 20.5586C68.6661 20.6114 68.6534 20.6655 68.6419 20.7184C68.6305 20.7712 68.6139 20.8442 68.5986 20.9046C68.5833 20.965 68.5655 21.0304 68.5477 21.0921C68.5298 21.1537 68.5196 21.1915 68.5043 21.2406C68.4831 21.3119 68.4602 21.3836 68.4356 21.4557C68.4228 21.4922 68.4114 21.5287 68.3986 21.5639C68.3693 21.647 68.3387 21.7275 68.3069 21.808L68.2801 21.8772C68.2419 21.9691 68.2037 22.0609 68.1617 22.1503C68.1588 22.1589 68.1554 22.1673 68.1515 22.1754C67.4318 23.74 66.1982 25.0187 64.6508 25.8042H64.6406C64.5463 25.852 64.4508 25.8973 64.3539 25.9413L64.3043 25.964C64.2189 26.0017 64.1323 26.0382 64.0495 26.0735L63.959 26.1087L63.7285 26.1943L63.6011 26.237L63.3985 26.3025L63.2265 26.3503C63.1692 26.3654 63.1132 26.3817 63.0558 26.3956C62.9985 26.4094 62.9106 26.4295 62.8367 26.4459L62.7093 26.4748C62.6176 26.4937 62.5272 26.5088 62.4354 26.5239L62.3463 26.539C62.2303 26.5566 62.1131 26.5705 61.9947 26.5831H61.9756C61.8482 26.5956 61.7208 26.6057 61.5934 26.612C61.466 26.6183 61.3386 26.6208 61.2201 26.6208C61.1016 26.6208 61.0074 26.6208 60.9016 26.6208L60.7743 26.6133C60.7144 26.6133 60.6558 26.607 60.5959 26.6019L60.4035 26.5843L60.3271 26.5755C59.0891 26.4287 57.9056 25.9872 56.8784 25.2889C55.8513 24.5907 55.0111 23.6565 54.4302 22.5667L54.3537 22.4208C54.3372 22.3856 54.3206 22.3516 54.3028 22.3164C54.0151 21.7188 53.8087 21.0863 53.6888 20.4353C53.67 20.3404 53.6239 20.2528 53.556 20.183C53.4882 20.1133 53.4014 20.0644 53.3061 20.0421C53.2108 20.0198 53.1111 20.025 53.0187 20.0573C52.9264 20.0895 52.8455 20.1474 52.7855 20.2239L51.0454 22.456C50.9928 22.5233 50.9583 22.6027 50.9451 22.6868C50.932 22.7708 50.9406 22.8568 50.9702 22.9367C51.5093 24.3293 52.3332 25.5971 53.3906 26.6611L53.4594 26.729C53.5435 26.8121 53.6289 26.8938 53.7142 26.9744L53.8416 27.0889L54.0658 27.2839C54.1461 27.3518 54.2263 27.4185 54.3079 27.484C54.3894 27.5494 54.4531 27.5997 54.527 27.6563L54.5856 27.7029C54.6416 27.7444 54.7002 27.7847 54.7563 27.8287L54.8582 27.9017C54.9372 27.9583 55.0187 28.0124 55.099 28.0665L55.1945 28.1294C55.2824 28.1873 55.3716 28.2427 55.4608 28.298L55.5257 28.337C55.6276 28.3974 55.7296 28.4566 55.8327 28.5145H55.8442C56.8978 29.1014 58.0437 29.5093 59.2341 29.7211L59.2901 29.7312C59.3971 29.75 59.5054 29.7664 59.6137 29.7815L59.7322 29.7979L60.0112 29.8318L60.1806 29.8482C60.2609 29.8557 60.3411 29.862 60.4226 29.8671L60.6303 29.8797L60.8469 29.8885C60.88 29.8885 60.9118 29.8885 60.945 29.8885C61.0188 29.8885 61.0927 29.8885 61.1653 29.8885H61.3309C64.3883 29.8532 67.1476 28.4465 69.1158 26.4119L69.2037 28.9385C69.2087 29.0687 69.2645 29.1919 69.3596 29.2822C69.4546 29.3726 69.5814 29.423 69.7133 29.4229H71.6267C71.7619 29.4229 71.8915 29.3699 71.987 29.2755C72.0826 29.1811 72.1363 29.0531 72.1363 28.9196V19.0852Z" fill="#373737"/>
</svg>
